<svg width="68" height="68" viewBox="0 0 68 68" fill="none" xmlns="http://www.w3.org/2000/svg">
<g clip-path="url(#clip0_20_65)">
<path fill-rule="evenodd" clip-rule="evenodd" d="M34 0C52.7782 0 68 15.6058 68 34.86C68 50.2586 58.2692 63.3215 44.7678 67.9353C43.044 68.2787 42.432 67.19 42.432 66.2618C42.432 65.1126 42.4728 61.3591 42.4728 56.6943C42.4728 53.4439 41.3848 51.3225 40.1642 50.2413C47.736 49.3777 55.692 46.4296 55.692 33.0404C55.692 29.2324 54.3728 26.125 52.19 23.6838C52.5436 22.8032 53.7098 19.2574 51.8568 14.4566C51.8568 14.4566 49.0076 13.5226 42.517 18.031C39.8004 17.2592 36.89 16.8708 34 16.8572C31.11 16.8708 28.203 17.2592 25.4898 18.031C18.9924 13.5226 16.1364 14.4566 16.1364 14.4566C14.2902 19.2574 15.4564 22.8032 15.8066 23.6838C13.634 26.125 12.3046 29.2324 12.3046 33.0404C12.3046 46.3956 20.2436 49.3889 27.795 50.2695C26.8226 51.1399 25.942 52.6754 25.636 54.9296C23.698 55.8204 18.7748 57.3621 15.742 52.0343C15.742 52.0343 13.9434 48.6848 10.5298 48.44C10.5298 48.44 7.2148 48.396 10.2986 50.5584C10.2986 50.5584 12.5256 51.6294 14.0726 55.6584C14.0726 55.6584 16.0684 61.8803 25.5272 59.7723C25.5442 62.6861 25.5748 65.4322 25.5748 66.2618C25.5748 67.1832 24.9492 68.2616 23.2526 67.9386C9.74099 63.3316 0 50.262 0 34.86C0 15.6058 15.2252 0 34 0Z" fill="#555C74"/>
</g>
<defs>
<clipPath id="clip0_20_65">
<rect width="68" height="68" fill="white"/>
</clipPath>
</defs>
</svg>
