<svg width="68" height="68" viewBox="0 0 68 68" fill="none" xmlns="http://www.w3.org/2000/svg">
<g clip-path="url(#clip0_20_63)">
<path d="M62.6875 0H5.3125C2.37734 0 0 2.37734 0 5.3125V62.6875C0 65.6227 2.37734 68 5.3125 68H62.6875C65.6227 68 68 65.6227 68 62.6875V5.3125C68 2.37734 65.6227 0 62.6875 0ZM24.4906 48.2242H17.8633V27.0141H24.4906V48.2242ZM20.9977 24.3578H20.9445C18.5406 24.3578 16.9867 22.7375 16.9867 20.6789C16.9867 18.5805 18.5937 17 21.0375 17C23.4812 17 24.982 18.5805 25.0352 20.6789C25.0484 22.7242 23.4945 24.3578 20.9977 24.3578ZM51 48.2242H43.4828V37.2539C43.4828 34.3852 42.3141 32.4195 39.7242 32.4195C37.7453 32.4195 36.643 33.7477 36.1383 35.0227C35.9523 35.4742 35.9789 36.1117 35.9789 36.7625V48.2242H28.5281C28.5281 48.2242 28.6211 28.7805 28.5281 27.0141H35.9789V30.3477C36.4172 28.8867 38.7945 26.8148 42.593 26.8148C47.3078 26.8148 51 29.8695 51 36.4305V48.2242Z" fill="#555C74"/>
</g>
<defs>
<clipPath id="clip0_20_63">
<rect width="68" height="68" fill="white"/>
</clipPath>
</defs>
</svg>
