<svg width="22" height="17" viewBox="0 0 22 17" fill="none" xmlns="http://www.w3.org/2000/svg">
<path d="M0.399158 2.17061C0.533772 1.58077 0.864687 1.05412 1.33771 0.676917C1.81073 0.299713 2.39782 0.094312 3.00282 0.0943527H19.0254C19.6304 0.094312 20.2174 0.299713 20.6905 0.676917C21.1635 1.05412 21.4944 1.58077 21.629 2.17061L11.0141 8.6584L0.399158 2.17061ZM0.332397 3.69542V13.1808L8.08063 8.43008L0.332397 3.69542ZM9.35976 9.21385L0.587423 14.5907C0.804163 15.0478 1.14624 15.4338 1.57385 15.704C2.00146 15.9742 2.49701 16.1174 3.00282 16.1169H19.0254C19.5311 16.117 20.0264 15.9735 20.4538 15.7031C20.8812 15.4327 21.223 15.0465 21.4394 14.5894L12.6671 9.21251L11.0141 10.2233L9.35976 9.21251V9.21385ZM13.9475 8.43141L21.6958 13.1808V3.69542L13.9475 8.43008V8.43141Z" fill="#595F74"/>
</svg>
