<svg width="91" height="91" viewBox="0 0 91 91" fill="none" xmlns="http://www.w3.org/2000/svg">
<g clip-path="url(#clip0_20_49)">
<path fill-rule="evenodd" clip-rule="evenodd" d="M26.4914 0.553911C19.1443 0.885411 12.7762 2.68168 7.63418 7.80204C2.47415 12.9493 0.700196 19.3426 0.36787 26.6132C0.161288 31.1512 -1.04669 65.4348 2.4562 74.4257C4.8184 80.4913 9.47084 85.155 15.5919 87.5248C18.4481 88.6358 21.7086 89.3878 26.4914 89.6073C66.4827 91.4172 81.307 90.4319 87.5583 74.4257C88.6676 71.5766 89.431 68.319 89.6421 63.548C91.4699 23.4542 89.3458 14.7636 82.3759 7.80204C76.8477 2.28745 70.3448 -1.46646 26.4914 0.553911ZM26.8595 81.5438C22.4809 81.3467 20.1053 80.6171 18.52 80.0034C14.5321 78.4534 11.5367 75.4704 9.99632 71.5058C7.32873 64.6741 8.21348 32.2271 8.45149 26.9768C8.68502 21.8341 9.72689 17.1339 13.3555 13.5053C17.8464 9.02555 23.6486 6.83005 63.1549 8.61301C68.3104 8.84594 73.0214 9.88569 76.659 13.5053C81.1499 17.9851 83.3773 23.8319 81.563 63.1866C81.3654 67.5544 80.6335 69.9244 80.0182 71.5058C75.954 81.9212 66.6038 83.3671 26.8595 81.5438ZM63.5905 21.1656C63.5905 24.1312 66.0022 26.5427 68.9796 26.5427C71.9571 26.5427 74.3732 24.1312 74.3732 21.1656C74.3732 18.2 71.9571 15.7906 68.9796 15.7906C66.0022 15.7906 63.5905 18.2 63.5905 21.1656ZM21.9466 45.0784C21.9466 57.783 32.2711 68.0833 45.0073 68.0833C57.7434 68.0833 68.068 57.783 68.068 45.0784C68.068 32.3738 57.7434 22.0801 45.0073 22.0801C32.2711 22.0801 21.9466 32.3738 21.9466 45.0784ZM30.0391 45.0784C30.0391 36.8357 36.7396 30.148 45.0073 30.148C53.275 30.148 59.9754 36.8357 59.9754 45.0784C59.9754 53.3257 53.275 60.0154 45.0073 60.0154C36.7396 60.0154 30.0391 53.3257 30.0391 45.0784Z" fill="#555C74"/>
</g>
<defs>
<clipPath id="clip0_20_49">
<rect width="90.2655" height="90.2655" fill="white"/>
</clipPath>
</defs>
</svg>
