<svg width="22" height="26" viewBox="0 0 22 26" fill="none" xmlns="http://www.w3.org/2000/svg">
<path d="M11.0141 13.2859C11.7485 13.2859 12.3773 13.0417 12.9007 12.5532C13.4233 12.0655 13.6845 11.4789 13.6845 10.7935C13.6845 10.1081 13.4233 9.52115 12.9007 9.03265C12.3773 8.54497 11.7485 8.30113 11.0141 8.30113C10.2797 8.30113 9.65128 8.54497 9.12877 9.03265C8.60537 9.52115 8.34367 10.1081 8.34367 10.7935C8.34367 11.4789 8.60537 12.0655 9.12877 12.5532C9.65128 13.0417 10.2797 13.2859 11.0141 13.2859ZM11.0141 25.7479C7.43127 22.9024 4.75551 20.2592 2.9868 17.8183C1.2172 15.3783 0.332397 13.1198 0.332397 11.0428C0.332397 7.92727 1.40635 5.44526 3.55426 3.59673C5.70128 1.74821 8.18789 0.823944 11.0141 0.823944C13.8403 0.823944 16.3269 1.74821 18.4739 3.59673C20.6218 5.44526 21.6958 7.92727 21.6958 11.0428C21.6958 13.1198 20.8114 15.3783 19.0427 17.8183C17.2731 20.2592 14.5969 22.9024 11.0141 25.7479Z" fill="#64697B"/>
</svg>
