<svg width="43" height="43" viewBox="0 0 43 43" fill="none" xmlns="http://www.w3.org/2000/svg">
<g clip-path="url(#clip0_11_9)">
<path d="M21.5 43C33.3741 43 43 33.3741 43 21.5C43 9.62588 33.3741 0 21.5 0C9.62588 0 0 9.62588 0 21.5C0 33.3741 9.62588 43 21.5 43Z" fill="#F41B29"/>
<path d="M16.9683 28.0774L5 22.8744V19.9931L16.9683 14.8138V18.2075L8.61857 21.3999L16.9683 24.7107V28.0774Z" fill="#FAFBFF"/>
<path d="M18.0759 30.3634L22.3996 12.3094H24.9123L20.5412 30.3634H18.0759Z" fill="#FAFBFF"/>
<path d="M26.0198 28.0908V24.7191L34.3797 21.432L26.0198 18.182V14.8357L38 20.015V22.8726L26.0198 28.0908Z" fill="#FAFBFF"/>
</g>
<defs>
<clipPath id="clip0_11_9">
<rect width="43" height="43" fill="white"/>
</clipPath>
</defs>
</svg>
