<svg width="516" height="517" viewBox="0 0 516 517" fill="none" xmlns="http://www.w3.org/2000/svg">
<path d="M328.914 177.041H330.803V178.908H332.532V177.041H334.421V182.694H332.532V180.801H330.804V182.694H328.914V177.041H328.914ZM336.906 178.916H335.243V177.041H340.459V178.916H338.795V182.694H336.906V178.916H336.906ZM341.287 177.041H343.258L344.469 179.027L345.68 177.041H347.651V182.694H345.769V179.892L344.469 181.902H344.437L343.136 179.892V182.694H341.287V177.041ZM348.591 177.041H350.481V180.825H353.138V182.694H348.591V177.041ZM326.151 185.279L328.854 215.592L340.982 218.959L353.143 215.588L355.848 185.279L326.151 185.279ZM350.211 192.473L350.042 194.358L349.968 195.193H349.955H341H340.987H335.74L336.08 199H340.987H341H348.627H349.629L349.538 199.999L348.665 209.787L348.609 210.414L341 212.523V212.524L340.983 212.529L333.367 210.414L332.846 204.577H334.566H336.578L336.843 207.542L340.983 208.66L340.987 208.659V208.659L345.134 207.54L345.565 202.718H341H340.987H332.68L331.766 192.473L331.677 191.476H340.987H341H350.3L350.211 192.473Z" fill="#555C74" fill-opacity="0.2"/>
<g clip-path="url(#clip0_9_70)">
<path fill-rule="evenodd" clip-rule="evenodd" d="M402.095 117.047C402.041 117.055 402.045 117.119 402.049 117.184C402.049 133.09 402.049 148.994 402.049 164.9C417.927 165.007 434 164.915 449.953 164.946C449.953 148.979 449.953 133.014 449.953 117.047C434.001 117.047 418.047 117.047 402.095 117.047ZM426.365 159.391C425.257 160.508 423.508 161.166 421.356 161.166C417.827 161.166 415.868 159.447 414.617 157.068C415.821 156.3 417.051 155.557 418.306 154.838C418.817 156.269 420.545 157.877 422.495 156.887C423.73 156.259 423.588 154.355 423.588 152.288C423.588 147.997 423.588 143.046 423.588 139.175C423.584 139.11 423.58 139.046 423.633 139.038C425.106 139.038 426.578 139.038 428.05 139.038C428.05 142.487 428.05 146.388 428.05 150.057C428.05 154.05 428.335 157.405 426.365 159.391ZM446.128 155.43C445.877 159.169 442.824 161.155 438.706 161.166C434.669 161.178 432.085 159.384 430.509 156.613C431.642 155.834 432.926 155.205 434.107 154.474C435.052 155.951 436.688 157.371 439.116 157.16C440.628 157.028 442.383 155.795 441.392 153.927C440.912 153.021 439.75 152.561 438.706 152.106C435.391 150.66 431.503 149.334 431.875 144.138C431.999 142.402 432.799 141.183 433.833 140.313C434.894 139.423 436.314 138.826 438.205 138.765C441.639 138.656 443.523 140.183 444.808 142.317C443.714 143.151 442.509 143.874 441.301 144.593C440.905 143.375 438.991 142.188 437.385 142.909C436.655 143.236 435.999 144.199 436.383 145.367C436.727 146.409 438.126 146.98 439.252 147.462C442.66 148.921 446.469 150.347 446.128 155.43Z" fill="#555C74" fill-opacity="0.2"/>
</g>
<path d="M238.776 218.149C238.352 217.916 238.104 217.427 238.206 216.929C238.977 212.975 242.089 206.952 245.878 205.525C246.436 203.294 248.172 200.815 249.893 199.921C250.252 199.737 250.667 199.746 251.017 199.958C253.641 201.553 254.774 203.635 255.749 205.506C258.253 206.139 260.493 207.114 262.943 208.641C263.545 209.019 264.084 209.497 264.558 209.919C265.007 210.319 265.465 210.732 265.789 210.872C266.084 210.996 266.766 210.932 267.322 210.876C267.837 210.825 268.377 210.778 268.887 210.821C270.341 210.952 271.524 211.298 272.973 212.028C273.531 212.315 273.766 212.998 273.481 213.566C273.196 214.135 272.511 214.359 271.947 214.067C270.744 213.464 269.861 213.196 268.685 213.095C268.383 213.072 267.974 213.105 267.539 213.151C266.683 213.233 265.707 213.327 264.875 212.964C264.206 212.672 263.628 212.164 263.024 211.612C262.601 211.236 262.161 210.841 261.73 210.566C259.339 209.07 257.171 208.156 254.713 207.595C254.39 207.523 254.115 207.313 253.958 207.009L253.802 206.703C252.948 205.08 252.149 203.534 250.421 202.289C249.311 203.213 248.178 205.137 248.003 206.548C247.947 207.033 247.575 207.429 247.105 207.524C244.45 208.068 241.231 213.383 240.451 217.352C240.33 217.972 239.727 218.375 239.107 218.253C238.98 218.241 238.87 218.199 238.775 218.147L238.776 218.149ZM240.956 232.223C240.882 232.183 240.813 232.136 240.748 232.08C240.27 231.664 240.227 230.945 240.643 230.467L240.866 230.217C241.938 228.994 242.84 228.031 243.636 227.382C239.999 224.267 238.078 220.664 238.179 217.116C238.201 216.489 238.725 215.985 239.353 216.006C239.98 216.028 240.484 216.552 240.462 217.179C240.371 220.381 242.458 223.732 246.343 226.622C246.714 226.902 246.882 227.376 246.772 227.82C246.658 228.272 246.281 228.61 245.818 228.669C245.501 228.744 244.675 229.328 242.587 231.719L242.36 231.976C242.003 232.381 241.416 232.478 240.955 232.224L240.956 232.223ZM235.08 238.539C235.015 238.503 234.96 238.464 234.903 238.412C234.421 238.004 234.34 237.302 234.748 236.82C235.443 235.99 236.308 235.961 236.821 235.947C237.169 235.938 237.282 235.924 237.382 235.845C237.876 235.486 238.505 234.202 239.006 233.17C239.217 232.732 239.433 232.289 239.654 231.868C237.112 230.995 234.524 229.734 234.403 226.797C234.381 226.212 234.457 225.673 234.525 225.186C234.599 224.636 234.67 224.159 234.59 223.733C234.472 223.115 234.884 222.522 235.502 222.404C236.121 222.286 236.718 222.691 236.832 223.316C236.976 224.111 236.872 224.855 236.78 225.51C236.718 225.933 236.662 226.331 236.676 226.702C236.741 228.282 238.349 229.072 241.701 230.122C242.052 230.23 242.322 230.502 242.44 230.843C242.553 231.192 242.497 231.571 242.288 231.866C241.863 232.463 241.449 233.322 241.042 234.148C240.339 235.601 239.672 236.971 238.706 237.67C238.01 238.173 237.32 238.195 236.868 238.204C236.741 238.21 236.55 238.21 236.501 238.231C236.166 238.685 235.559 238.801 235.082 238.538L235.08 238.539ZM249.744 246.352C249.415 246.171 249.188 245.837 249.151 245.436C249.143 245.259 249.069 245.115 248.941 244.863C248.744 244.458 248.473 243.909 248.494 243.091C248.542 241.6 249.567 239.961 250.644 238.227C251.306 237.16 251.989 236.058 252.363 235.1C252.676 234.289 252.596 233.807 252.488 233.138C252.423 232.702 252.341 232.208 252.378 231.637C252.404 231.26 252.615 230.928 252.934 230.731C253.26 230.538 253.653 230.516 253.995 230.675C257.905 232.461 261.846 232.321 264.815 230.3C265.333 229.946 266.043 230.078 266.404 230.602C266.758 231.121 266.626 231.83 266.103 232.191C262.924 234.363 258.902 234.793 254.843 233.468C254.906 234.133 254.89 234.925 254.496 235.938C254.05 237.096 253.308 238.29 252.59 239.439C251.759 240.775 250.822 242.291 250.787 243.169C250.779 243.393 250.844 243.535 250.996 243.847C251.166 244.179 251.392 244.637 251.438 245.263C251.484 245.89 251.011 246.44 250.384 246.486C250.151 246.511 249.933 246.458 249.742 246.353L249.744 246.352ZM264.908 232.249C264.82 232.201 264.733 232.135 264.657 232.064C264.207 231.617 264.201 230.898 264.649 230.449C267.894 227.168 269.917 221.701 268.889 218.99C268.723 218.546 268.844 218.05 269.196 217.738C270.402 216.656 271.193 214.469 271.328 212.959C271.385 212.333 271.939 211.864 272.566 211.923C273.192 211.982 273.661 212.535 273.602 213.161C273.452 214.891 272.651 217.302 271.245 218.905C272.184 222.854 269.56 228.736 266.273 232.059C265.899 232.425 265.347 232.494 264.907 232.252L264.908 232.249ZM245.699 245.885C245.517 245.784 245.354 245.628 245.246 245.427C245.128 245.209 244.772 244.555 244.623 242.414C244.556 241.442 246.184 237.684 249.466 231.229C249.754 230.672 250.443 230.44 251.001 230.728C251.558 231.016 251.789 231.705 251.501 232.262C249.351 236.488 247.069 241.366 246.905 242.324C247.015 243.892 247.239 244.32 247.249 244.335C247.546 244.889 247.346 245.58 246.788 245.884C246.44 246.083 246.029 246.068 245.7 245.887L245.699 245.885ZM238.105 241.71C237.776 241.529 237.542 241.191 237.517 240.785C237.471 240.158 237.952 239.613 238.578 239.566C238.595 239.567 239.077 239.526 240.46 238.779C241.177 238.134 244.07 233.583 246.493 229.507C246.809 228.965 247.519 228.784 248.057 229.108C248.599 229.424 248.78 230.136 248.456 230.672C244.764 236.902 242.457 240.297 241.607 240.754C239.723 241.769 238.976 241.825 238.729 241.842C238.508 241.864 238.288 241.81 238.105 241.71Z" fill="#555C74" fill-opacity="0.2"/>
<path fill-rule="evenodd" clip-rule="evenodd" d="M369.807 253.325C369.065 252.064 367.43 251.626 366.157 252.347C364.883 253.068 364.453 254.675 365.195 255.937L376.376 274.928L360.707 259.562C359.662 258.538 357.968 258.538 356.923 259.562C355.878 260.587 355.878 262.248 356.923 263.273L372.808 278.852L353.605 267.979C352.331 267.257 350.697 267.695 349.955 268.957C349.212 270.218 349.643 271.825 350.916 272.546L370.612 283.698L348.948 278.005C347.533 277.633 346.073 278.476 345.687 279.888C345.301 281.3 346.136 282.746 347.552 283.118L370.245 289.081H348.25C346.786 289.081 345.6 290.267 345.6 291.731C345.6 293.195 346.786 294.381 348.25 294.381H374.75C376.214 294.381 377.4 293.195 377.4 291.731C377.4 290.889 377.008 290.139 376.395 289.654C376.859 289.309 377.214 288.813 377.378 288.215C377.575 287.493 377.453 286.762 377.097 286.17C377.619 285.954 378.078 285.574 378.384 285.053C378.75 284.431 378.831 283.726 378.666 283.083C379.211 283.002 379.735 282.756 380.154 282.345C380.648 281.86 380.909 281.233 380.936 280.598C381.492 280.669 382.075 280.568 382.597 280.272C383.87 279.551 384.301 277.944 383.558 276.683L369.807 253.325ZM340.3 291.731C340.3 290.267 339.114 289.081 337.65 289.081C336.186 289.081 335 290.267 335 291.731V294.381C335 300.235 339.746 304.981 345.6 304.981H377.4C383.254 304.981 388 300.235 388 294.381V291.731C388 290.267 386.814 289.081 385.35 289.081C383.886 289.081 382.7 290.267 382.7 291.731V294.381C382.7 297.308 380.327 299.681 377.4 299.681H345.6C342.673 299.681 340.3 297.308 340.3 294.381V291.731Z" fill="#555C74" fill-opacity="0.2"/>
<path fill-rule="evenodd" clip-rule="evenodd" d="M97.1307 78.8387C100.146 75.9665 105.051 75.9665 108.067 78.8387L110.8 81.4421L113.534 78.8387L110.8 76.2354C106.271 71.9215 98.9266 71.9215 94.3971 76.2354C89.8676 80.5492 89.8676 87.5437 94.3971 91.8575L97.1307 94.4609L99.8642 91.8575L97.1307 89.2541C94.1149 86.3819 94.1149 81.7109 97.1307 78.8387ZM125.603 90.333L122.869 87.7278L120.136 90.333L122.869 92.9364C125.883 95.8067 125.883 100.48 122.869 103.352C119.854 106.222 114.947 106.222 111.933 103.352L109.2 100.747L106.464 103.352L109.2 105.955C113.729 110.269 121.073 110.269 125.603 105.955C130.132 101.641 130.132 94.6468 125.603 90.333ZM101.231 80.1404L121.503 99.4448L118.767 102.05L98.4974 82.7438L101.231 80.1404Z" fill="#555C74" fill-opacity="0.2"/>
<path fill-rule="evenodd" clip-rule="evenodd" d="M76.1091 180.33L73.0377 178.572C72.8447 178.458 72.7248 178.253 72.7248 178.03V174.288C72.7248 174.065 72.6063 173.858 72.4128 173.747L71.1054 172.994C71.0107 172.937 70.901 172.91 70.7949 172.91C70.6858 172.91 70.5792 172.937 70.4819 172.994L69.1736 173.747C68.98 173.858 68.862 174.065 68.862 174.288V178.03C68.862 178.253 68.7435 178.457 68.5497 178.572L65.4773 180.33C65.3819 180.389 65.2634 180.389 65.1671 180.33C65.0693 180.277 65.0114 180.173 65.0114 180.061L65 172.051C65 171.826 65.1198 171.62 65.3125 171.509L70.4818 168.534C70.5705 168.482 70.6682 168.456 70.7668 168.452C70.7744 168.452 70.8117 168.452 70.8206 168.452C70.9197 168.456 71.0174 168.482 71.1053 168.534L76.2742 171.509C76.4683 171.62 76.5861 171.827 76.5861 172.051L76.5762 180.062C76.5762 180.173 76.5163 180.277 76.4209 180.331C76.3258 180.389 76.2054 180.389 76.1091 180.33ZM95.9941 178.183V172.213C95.9941 171.99 96.1131 171.784 96.306 171.673L101.478 168.689C101.67 168.577 101.908 168.577 102.102 168.688L103.396 169.434C103.464 169.473 103.548 169.473 103.615 169.434C103.682 169.395 103.724 169.323 103.724 169.245V161.312C103.724 161.201 103.783 161.099 103.878 161.043C103.974 160.987 104.092 160.986 104.189 161.04L107.266 162.757C107.464 162.867 107.586 163.076 107.586 163.302V178.183C107.586 178.407 107.467 178.612 107.274 178.724L102.102 181.711C101.909 181.823 101.671 181.823 101.477 181.711L96.3063 178.724C96.1131 178.612 95.9941 178.407 95.9941 178.183ZM99.8457 176.222C99.8457 176.278 99.8754 176.329 99.9235 176.357L101.699 177.38C101.747 177.408 101.807 177.408 101.855 177.38L103.631 176.357C103.679 176.329 103.708 176.278 103.708 176.222V174.172C103.708 174.116 103.679 174.064 103.631 174.037L101.855 173.011C101.807 172.983 101.747 172.983 101.699 173.011L99.923 174.037C99.8754 174.064 99.8457 174.116 99.8457 174.172V176.222ZM122.689 171.592L117.551 168.608C117.358 168.496 117.119 168.496 116.926 168.608L111.756 171.592C111.563 171.703 111.444 171.91 111.444 172.133V178.101C111.444 178.325 111.565 178.532 111.759 178.644L116.897 181.57C117.086 181.679 117.319 181.679 117.509 181.574L120.616 179.847C120.714 179.792 120.776 179.689 120.776 179.576C120.777 179.464 120.717 179.36 120.619 179.303L115.418 176.317C115.321 176.262 115.261 176.158 115.261 176.046V174.176C115.261 174.065 115.32 173.962 115.417 173.905L117.036 172.972C117.132 172.916 117.251 172.916 117.348 172.972L118.968 173.905C119.064 173.962 119.124 174.065 119.124 174.176V175.648C119.124 175.76 119.184 175.863 119.281 175.919C119.377 175.974 119.496 175.974 119.593 175.918L122.689 174.118C122.882 174.006 123 173.801 123 173.578V172.132C123 171.909 122.882 171.703 122.689 171.592ZM80.8201 178.614L85.989 181.6C86.1826 181.712 86.4204 181.712 86.6139 181.6L91.7848 178.614C91.9778 178.502 92.0967 178.296 92.0967 178.073V172.101C92.0967 171.878 91.9777 171.671 91.7842 171.56L86.6139 168.576C86.4204 168.464 86.1826 168.464 85.9894 168.576L80.8201 171.56C80.6265 171.671 80.5076 171.878 80.5076 172.101V178.073C80.5076 178.296 80.6266 178.502 80.8201 178.614ZM111.614 192.389L95.6741 183.178C94.6739 182.608 93.3325 182.608 92.3239 183.178L76.3832 192.389C75.3505 192.984 74.7114 194.1 74.7114 195.295V213.692C74.7114 214.886 75.3505 216.003 76.3832 216.599L80.5628 219.007C82.5881 220.003 83.3141 220.003 84.2351 220.003C87.2328 220.003 88.9555 218.19 88.9555 215.027V196.865C88.9555 196.608 88.746 196.406 88.4935 196.406H86.4719C86.2152 196.406 86.0089 196.608 86.0089 196.865V215.027C86.0089 216.429 84.558 217.825 82.1889 216.641L77.8221 214.117C77.6682 214.034 77.5704 213.868 77.5704 213.692V195.295C77.5704 195.12 77.6682 194.947 77.8229 194.858L93.7541 185.662C93.9017 185.576 94.0981 185.576 94.245 185.662L110.179 194.855C110.332 194.947 110.427 195.114 110.427 195.295V213.692C110.427 213.868 110.332 214.037 110.183 214.122L94.2423 223.323C94.1059 223.406 93.8968 223.406 93.7485 223.323L89.6596 220.895C89.5379 220.825 89.3821 220.799 89.264 220.866C88.1322 221.509 87.9179 221.593 86.8577 221.961C86.5953 222.053 86.2077 222.21 87.0017 222.653L92.3241 225.802C92.8339 226.098 93.414 226.25 93.996 226.25C94.5864 226.25 95.1646 226.098 95.6745 225.802L111.615 216.599C112.647 215.998 113.289 214.886 113.289 213.692V195.295C113.289 194.1 112.646 192.986 111.614 192.389ZM99.5478 211.937C94.791 211.937 93.7446 210.742 93.3939 208.376C93.3533 208.123 93.137 207.935 92.8775 207.935H90.5533C90.2654 207.935 90.0342 208.165 90.0342 208.455C90.0342 211.482 91.682 215.093 99.548 215.093C105.244 215.093 108.51 212.85 108.51 208.934C108.51 205.05 105.885 204.017 100.362 203.286C94.7792 202.547 94.212 202.166 94.212 200.859C94.212 199.782 94.6925 198.341 98.8273 198.341C102.52 198.341 103.881 199.137 104.441 201.625C104.49 201.859 104.703 202.03 104.945 202.03H107.278C107.423 202.03 107.56 201.968 107.658 201.865C107.757 201.756 107.809 201.614 107.796 201.465C107.435 197.177 104.585 195.179 98.8271 195.179C93.7016 195.179 90.645 197.342 90.645 200.968C90.645 204.902 93.6865 205.99 98.6043 206.476C104.49 207.053 104.947 207.913 104.947 209.071C104.947 211.081 103.335 211.937 99.5478 211.937ZM117.282 173.839C117.245 173.817 117.199 173.817 117.162 173.839L116.17 174.411C116.133 174.432 116.11 174.472 116.11 174.515V175.661C116.11 175.704 116.133 175.743 116.17 175.765L117.162 176.337C117.199 176.358 117.245 176.358 117.282 176.337L118.274 175.765C118.311 175.743 118.334 175.704 118.334 175.661V174.515C118.334 174.472 118.311 174.432 118.274 174.411L117.282 173.839Z" fill="#555C74" fill-opacity="0.2"/>
<path d="M114.116 310.937C114.413 311.267 114.484 311.833 114.328 312.634C114.166 313.469 113.853 314.065 113.389 314.422C112.925 314.779 112.22 314.957 111.273 314.957H109.843L110.721 310.443H112.331C113.224 310.443 113.818 310.608 114.116 310.937ZM93.992 310.443H92.3822L91.5047 314.957H92.9339C93.881 314.957 94.5867 314.779 95.0506 314.422C95.5141 314.065 95.8268 313.469 95.9893 312.634C96.1448 311.833 96.0742 311.267 95.7769 310.937C95.4796 310.608 94.8848 310.443 93.992 310.443ZM122.96 313.5C122.96 319.444 113.8 324.263 102.5 324.263C91.2004 324.263 82.04 319.444 82.04 313.5C82.04 307.556 91.2004 302.737 102.5 302.737C113.8 302.737 122.96 307.556 122.96 313.5ZM97.8989 314.244C98.1423 313.807 98.3155 313.326 98.418 312.799C98.6664 311.521 98.479 310.525 97.8555 309.811C97.2325 309.098 96.2408 308.741 94.8818 308.741H90.3635L88.2673 319.527H90.617L91.1742 316.659H93.1868C94.0747 316.659 94.8052 316.566 95.3787 316.379C95.9522 316.193 96.4733 315.88 96.9425 315.441C97.3361 315.079 97.6547 314.68 97.8989 314.244ZM106.169 316.659L107.144 311.64C107.343 310.619 107.194 309.881 106.698 309.425C106.202 308.969 105.301 308.741 103.994 308.741H101.917L102.475 305.874H100.144L98.0469 316.659H100.378L101.579 310.48H103.442C104.038 310.48 104.428 310.579 104.612 310.776C104.795 310.974 104.834 311.344 104.728 311.887L103.801 316.659H106.169V316.659ZM116.194 309.811C115.571 309.098 114.58 308.741 113.221 308.741H108.702L106.606 319.527H108.956L109.513 316.66H111.526C112.413 316.66 113.144 316.566 113.717 316.38C114.291 316.193 114.812 315.88 115.281 315.441C115.675 315.079 115.993 314.68 116.237 314.244C116.481 313.807 116.654 313.326 116.757 312.799C117.005 311.521 116.818 310.525 116.194 309.811Z" fill="#555C74" fill-opacity="0.2"/>
<path fill-rule="evenodd" clip-rule="evenodd" d="M195 310.773C195 308.137 197.137 306 199.773 306H222.045C224.681 306 226.818 308.137 226.818 310.773V313.955C226.818 315.615 225.971 317.077 224.685 317.932C225.971 318.787 226.818 320.249 226.818 321.909V325.091C226.818 326.751 225.971 328.213 224.685 329.068C225.971 329.923 226.818 331.385 226.818 333.045V336.227C226.818 338.863 224.681 341 222.045 341H199.773C197.137 341 195 338.863 195 336.227V333.045C195 331.385 195.848 329.923 197.134 329.068C195.848 328.213 195 326.751 195 325.091V321.909C195 320.249 195.848 318.787 197.134 317.932C195.848 317.077 195 315.615 195 313.955V310.773ZM199.773 309.182C198.894 309.182 198.182 309.894 198.182 310.773V313.955C198.182 314.833 198.894 315.545 199.773 315.545H222.045C222.924 315.545 223.636 314.833 223.636 313.955V310.773C223.636 309.894 222.924 309.182 222.045 309.182H199.773ZM199.773 320.318C198.894 320.318 198.182 321.03 198.182 321.909V325.091C198.182 325.97 198.894 326.682 199.773 326.682H222.045C222.924 326.682 223.636 325.97 223.636 325.091V321.909C223.636 321.03 222.924 320.318 222.045 320.318H199.773ZM198.182 333.045C198.182 332.167 198.894 331.455 199.773 331.455H222.045C222.924 331.455 223.636 332.167 223.636 333.045V336.227C223.636 337.106 222.924 337.818 222.045 337.818H199.773C198.894 337.818 198.182 337.106 198.182 336.227V333.045ZM218.068 336.625C219.167 336.625 220.057 335.735 220.057 334.636C220.057 333.538 219.167 332.648 218.068 332.648C216.97 332.648 216.08 333.538 216.08 334.636C216.08 335.735 216.97 336.625 218.068 336.625ZM218.068 325.489C219.167 325.489 220.057 324.598 220.057 323.5C220.057 322.402 219.167 321.511 218.068 321.511C216.97 321.511 216.08 322.402 216.08 323.5C216.08 324.598 216.97 325.489 218.068 325.489ZM218.068 314.352C219.167 314.352 220.057 313.462 220.057 312.364C220.057 311.265 219.167 310.375 218.068 310.375C216.97 310.375 216.08 311.265 216.08 312.364C216.08 313.462 216.97 314.352 218.068 314.352Z" fill="#555C74" fill-opacity="0.2"/>
<g clip-path="url(#clip1_9_70)">
<path fill-rule="evenodd" clip-rule="evenodd" d="M307.651 56.4676C307.804 57.6001 307.889 58.81 307.889 60.1164C307.889 66.3573 307.31 66.709 294.346 104.186C304.9 98.0307 312 86.5959 312 73.5C312 67.3265 310.424 61.5228 307.651 56.4676ZM277.125 76.6062L266.471 107.554C273.66 109.67 281.278 109.455 288.29 106.991C288.194 106.838 288.108 106.674 288.037 106.5L277.125 76.6062ZM300.466 71.7077C300.466 67.3199 298.89 64.28 297.537 61.9157C295.741 58.9905 294.051 56.5171 294.051 53.5919C294.051 50.3295 296.529 47.291 300.015 47.291C300.171 47.291 300.321 47.3116 300.473 47.3187C294.158 41.5322 285.744 38 276.5 38C264.1 38 253.187 44.361 246.84 53.9993C249.101 54.0703 252.136 54.0995 258.587 53.5954C260.5 53.4818 260.724 56.2925 258.814 56.5162C258.814 56.5162 256.89 56.744 254.749 56.8576L267.678 95.3114L275.446 72.0093L269.915 56.8542C268.005 56.7441 266.194 56.5162 266.194 56.5162C264.281 56.4026 264.505 53.4783 266.418 53.5919C273.756 54.1564 277.512 54.199 285.229 53.5919C287.143 53.4783 287.37 56.289 285.457 56.5162C285.457 56.5162 283.529 56.7441 281.392 56.8542L294.222 95.0167C299.287 78.0903 300.466 75.2577 300.466 71.7077ZM241 73.5C241 87.5509 249.165 99.6954 261.008 105.45L244.074 59.0521C242.104 63.4683 241 68.3525 241 73.5Z" fill="#555C74" fill-opacity="0.2"/>
</g>
<g clip-path="url(#clip2_9_70)">
<path fill-rule="evenodd" clip-rule="evenodd" d="M331.253 387.53L301.561 434.015L292.051 419.161L273.47 431.164L267.441 421.747L286.119 409.895L276.609 395.041L331.253 387.53Z" fill="#555C74" fill-opacity="0.2"/>
</g>
<defs>
<clipPath id="clip0_9_70">
<rect width="48" height="48" fill="white" transform="translate(402 117)"/>
</clipPath>
<clipPath id="clip1_9_70">
<rect width="71" height="71" fill="white" transform="translate(241 38)"/>
</clipPath>
<clipPath id="clip2_9_70">
<rect width="55" height="55" fill="white" transform="translate(277.53 375.747) rotate(12.3711)"/>
</clipPath>
</defs>
</svg>
