<svg width="70" height="70" viewBox="0 0 70 70" fill="none" xmlns="http://www.w3.org/2000/svg">
<path d="M0 70C0 70 22.7131 -2.89967 70 0.089474C70 0.089474 64.1357 9.62523 49.3338 12.7068C49.3338 12.7068 56.2245 13.5504 61.8087 11.6803C61.8087 11.6803 58.4574 22.5257 40.2141 24.0164C40.2141 24.0164 50.2681 26.6338 54.7359 25.1373C54.7359 25.1373 53.5234 33.2218 34.9491 37.2394C33.8483 37.4754 26.4346 39.3377 32.391 40.0869C32.391 40.0869 40.9525 41.5874 43.1913 40.8362C43.1913 40.8362 35.8579 51.8626 17.8692 50.9285C16.1005 50.8361 15.2602 50.9285 15.2602 50.9285L0 70Z" fill="#BD8D4C"/>
</svg>
