<svg width="70" height="70" viewBox="0 0 70 70" fill="none" xmlns="http://www.w3.org/2000/svg">
<path d="M39.9343 0.909274C39.4107 1.02547 38.3334 1.43287 37.5186 1.84027C36.7185 2.23297 35.9471 2.56758 35.8162 2.56758C35.6853 2.56758 35.0014 2.27638 34.3028 1.91308C32.0908 0.778377 30.4612 0.574679 28.9478 1.24388C28.2933 1.53508 27.2888 2.36458 26.8527 2.98968L26.5762 3.36768H27.9874C29.7192 3.36768 30.1847 3.58608 30.1847 4.38618C30.1847 5.08478 29.8648 5.18627 27.7837 5.18627C20.6101 5.18627 16.667 7.31078 14.9058 12.1415C14.2366 13.9895 14.0182 15.2411 13.9307 17.9914C13.8292 21.2653 14.091 23.5788 15.0801 28.3955C15.8074 31.9606 15.8221 32.0915 15.8368 34.6528C15.8515 36.7626 15.8074 37.4318 15.6037 38.087C15.2691 39.1636 14.5418 40.2115 13.7704 40.7645C13.174 41.1719 13.0571 41.2006 11.7334 41.2006C10.4965 41.2006 10.2347 41.1572 9.57953 40.8079C8.91173 40.4593 8.15503 39.746 7.66013 39.004C7.35423 38.5525 7.55793 40.7211 7.92193 41.9286C8.94043 45.1591 10.8031 47.4873 13.1313 48.433C13.8586 48.7242 14.2079 48.7676 15.9978 48.7676C18.2966 48.7676 19.2717 48.5639 20.9454 47.7638C21.5131 47.502 22.2551 47.0218 22.6191 46.7012L23.2596 46.1195L22.6632 44.8245C21.8918 43.1508 21.2226 41.041 20.9314 39.3386C20.5674 37.2869 20.713 33.6637 21.2226 31.8157C22.0668 28.8183 23.667 26.0246 25.9224 23.667C27.2902 22.2264 28.3962 21.3388 29.953 20.4365C30.5207 20.1019 31.0156 19.8107 31.059 19.782C31.1024 19.7386 30.9428 19.5489 30.695 19.3599C29.4728 18.3701 26.8534 18.312 24.1619 19.2143C22.5176 19.7673 21.7462 19.8548 21.2079 19.5489C20.8733 19.3599 20.2181 18.6032 20.3203 18.501C20.3497 18.4716 20.6402 18.5304 20.9461 18.6466C21.266 18.7628 21.6447 18.8503 21.7756 18.865C21.9212 18.865 22.5757 18.3701 23.2309 17.7737C23.9001 17.1626 24.7877 16.4346 25.2245 16.1441C26.1121 15.5477 27.4652 15.0822 28.28 15.0822C29.7059 15.0822 31.4664 16.0426 33.0673 17.6869L34.041 18.676L35.0308 18.4429L36.0206 18.2098L35.9331 17.4097C35.7581 15.8529 35.2198 14.6594 34.3322 13.874C33.2843 12.943 30.7524 12.215 29.1081 12.39L28.3661 12.4628L28.9478 12.2444C29.2677 12.1135 30.1266 11.9098 30.8392 11.7936C33.2402 11.3715 35.1169 11.7936 36.4847 13.0452C37.4304 13.9034 38.0128 15.0388 38.3033 16.6103L38.5217 17.7744L41.2286 17.7891C43.8914 17.8038 46.1762 18.0362 48.3728 18.5164L49.3185 18.7201L50.1333 17.8472C51.6033 16.2904 52.2578 14.6461 52.4034 12.2451C52.5056 10.5133 52.3012 9.05868 51.7342 7.39968C51.1518 5.71198 50.512 4.70748 49.1729 3.36908C47.8632 2.04468 46.5395 1.25927 45.0114 0.895274C43.8634 0.632774 41.2293 0.632774 39.9343 0.909274Z" fill="#BD8D4C"/>
<path d="M37.8973 20.2475C30.7965 21.4263 25.4849 25.7915 23.7097 31.9032C22.9236 34.6101 22.9236 37.6075 23.7244 40.3718C24.234 42.147 25.4996 44.6642 26.649 46.1776C27.7109 47.5888 27.7984 47.8366 28.2352 50.6884C28.4095 51.8091 28.497 53.2637 28.497 54.908L28.5117 57.4105L29.239 57.5708C29.6464 57.6583 34.3609 58.6474 39.7159 59.7681C45.0856 60.8888 49.6251 61.8492 49.8288 61.8926C50.1487 61.9801 50.12 61.9073 49.5376 61.2521C48.65 60.263 47.8352 58.8364 47.6315 57.9054C47.2822 56.392 47.908 55.4029 49.567 54.8058C50.0766 54.6308 50.862 54.3543 51.3275 54.1947C51.779 54.0344 52.157 53.8601 52.157 53.802C52.1423 53.7579 51.051 53.1762 49.7126 52.5217C45.9438 50.6737 42.2044 48.2874 37.9848 45.0135C35.4095 43.0199 34.8418 42.4529 34.8418 41.8999C34.8418 41.3035 35.4235 40.6924 35.9912 40.6924C36.3258 40.6924 36.8641 41.0417 38.29 42.1764C43.9943 46.76 50.2509 50.5435 54.18 51.8091C55.0676 52.1003 55.839 52.3327 55.8824 52.3327C55.9405 52.3327 55.9405 51.5907 55.8971 50.6884L55.8096 49.0294L56.6678 48.3896C57.148 48.0403 57.5267 47.7204 57.5407 47.6763C57.5407 47.6329 56.973 47.4873 56.2744 47.3417C50.2502 46.1195 43.2509 42.525 38.115 38.0436L37.5473 37.534L37.9981 37.0104C38.6974 36.225 38.8724 35.497 38.5812 34.6241C38.4503 34.2461 38.3922 33.8821 38.4503 33.824C38.5084 33.7806 42.9905 32.4996 48.4176 31.0009C54.9073 29.1963 58.2687 28.2072 58.2687 28.0763C58.2687 27.7564 55.4897 25.0936 54.2381 24.206C51.8077 22.4742 48.6507 21.1064 45.6386 20.4519C43.7759 20.0585 39.6872 19.9423 37.8973 20.2475ZM35.8309 34.377C36.0059 34.5807 36.1508 34.93 36.1508 35.1771C36.1508 35.7882 35.4522 36.4721 34.8411 36.4721C34.2881 36.4721 33.5314 35.7882 33.5314 35.2786C33.5608 34.0424 35.0161 33.46 35.8309 34.377Z" fill="#BD8D4C"/>
<path d="M58.196 30.6222C57.3959 30.8987 56.7267 31.1458 56.712 31.1458C56.6973 31.1605 57.2069 32.8482 57.8327 34.9146L58.9674 38.6687L57.3084 41.7536C56.3914 43.456 55.6494 44.8819 55.6494 44.926C55.6494 45.0863 59.0255 45.668 59.1417 45.5371C59.2145 45.479 59.9859 44.0678 60.8735 42.4235C62.0089 40.299 62.4891 39.2658 62.4891 38.9312C62.4891 38.2473 60.0006 30.0692 59.8116 30.0839C59.7241 30.0986 58.9968 30.3317 58.196 30.6222Z" fill="#BD8D4C"/>
<path d="M52.7394 32.2812C51.8952 32.5283 51.1973 32.732 51.1826 32.7467C51.1679 32.7614 51.5025 33.9689 51.9393 35.4095C52.3761 36.8648 52.7394 38.1304 52.7394 38.2326C52.7394 38.3201 52.2011 39.4254 51.5459 40.677C50.8767 41.9286 50.3237 42.9905 50.2943 43.0486C50.2362 43.1648 51.0069 43.5288 52.5497 44.1105L53.452 44.4598L54.9073 41.7095C55.7802 40.0946 56.3766 38.7996 56.3766 38.5518C56.3766 38.3334 55.9545 36.7332 55.4309 35.0161C54.9073 33.299 54.4852 31.8878 54.4852 31.8584C54.4859 31.7863 54.2962 31.8304 52.7394 32.2812Z" fill="#BD8D4C"/>
<path d="M47.6028 33.7512C46.1916 34.1586 46.0313 34.2314 46.0894 34.4932C46.1188 34.6675 46.3078 35.3661 46.4968 36.05L46.8314 37.3016L46.2784 38.3782C45.9725 38.9746 45.5945 39.6585 45.4489 39.9063L45.1724 40.3571L45.7254 40.7211C46.0166 40.9248 46.7005 41.3175 47.2241 41.6087L48.1698 42.147L49.2905 40.0519C49.931 38.8731 50.4112 37.7965 50.4112 37.5634C50.4112 37.1119 49.3633 33.2563 49.2471 33.285C49.2037 33.2857 48.461 33.5034 47.6028 33.7512Z" fill="#BD8D4C"/>
<path d="M42.4809 35.2205C40.9241 35.672 40.88 35.7007 40.9241 36.0794C40.9388 36.2978 40.866 36.6324 40.7351 36.8214C40.502 37.1707 40.502 37.1707 41.9286 38.1892L43.3545 39.2224L43.8347 38.3929C44.5914 37.0538 44.6789 36.6464 44.3583 35.6279L44.0818 34.7697L42.4809 35.2205Z" fill="#BD8D4C"/>
<path d="M26.1401 62.1691C25.3981 63.6678 24.8157 64.9047 24.8451 64.9488C24.8885 64.9782 29.6758 65.7202 35.511 66.6078C41.3462 67.4807 47.7918 68.4558 49.8295 68.7617C51.8665 69.0669 53.5542 69.3147 53.5542 69.3C53.6123 69.2419 51.1385 64.2656 51.0657 64.2656C51.0076 64.2656 45.7107 63.189 39.2938 61.8646C32.8769 60.5402 27.5947 59.4636 27.5653 59.4636C27.5226 59.4629 26.8821 60.6851 26.1401 62.1691Z" fill="#BD8D4C"/>
</svg>
