<svg width="21" height="23" viewBox="0 0 21 23" fill="none" xmlns="http://www.w3.org/2000/svg">
<path d="M3.8892 4.48975H17.2054C18.4617 4.48975 19.0948 5.15196 19.0948 6.49883V15.9494C19.0948 17.2851 18.4617 17.9585 17.2054 17.9585H3.8892C2.63295 17.9585 1.9998 17.2851 1.9998 15.9494V6.49883C1.9998 5.15196 2.63295 4.48975 3.8892 4.48975ZM10.5423 14.1424L17.316 7.9355C17.5572 7.71102 17.7481 7.19472 17.4466 6.73454C17.1552 6.27436 16.6225 6.26313 16.2708 6.54373L10.5423 10.8762L4.82385 6.54373C4.4721 6.26313 3.93945 6.27436 3.648 6.73454C3.3465 7.19472 3.53745 7.71102 3.77865 7.9355L10.5423 14.1424Z" fill="white"/>
</svg>
