<svg width="21" height="23" viewBox="0 0 21 23" fill="none" xmlns="http://www.w3.org/2000/svg">
<g clip-path="url(#clip0_123_125)">
<path d="M9.13871 19.794C7.54484 17.5657 3.99986 12.1649 3.99986 9.13127C3.99986 5.45067 6.62455 2.46704 9.86236 2.46704C13.0989 2.46704 15.7249 5.45067 15.7249 9.13127C15.7249 12.1649 12.1524 17.5657 10.586 19.794C10.2104 20.3251 9.51427 20.3251 9.13871 19.794ZM9.86236 11.3527C10.9402 11.3527 11.8165 10.3565 11.8165 9.13127C11.8165 7.90602 10.9402 6.90986 9.86236 6.90986C8.78451 6.90986 7.90819 7.90602 7.90819 9.13127C7.90819 10.3565 8.78451 11.3527 9.86236 11.3527Z" fill="white"/>
</g>
<defs>
<clipPath id="clip0_123_125">
<rect width="11.725" height="17.7713" fill="white" transform="translate(3.99986 2.46704)"/>
</clipPath>
</defs>
</svg>
