<svg width="22" height="22" viewBox="0 0 22 22" fill="none" xmlns="http://www.w3.org/2000/svg">
<path fill-rule="evenodd" clip-rule="evenodd" d="M2.84917 1.19651C3.0828 0.963233 3.36333 0.782271 3.67219 0.665616C3.98104 0.548961 4.31116 0.499277 4.64067 0.519855C4.97018 0.540434 5.29156 0.630806 5.5835 0.784982C5.87544 0.939158 6.13128 1.15362 6.33407 1.41415L8.73077 4.49315C9.17006 5.05794 9.32494 5.79364 9.15137 6.48795L8.42101 9.41206C8.38324 9.56352 8.38528 9.72216 8.42693 9.87259C8.46857 10.023 8.5484 10.1601 8.65867 10.2706L11.9393 13.5512C12.0499 13.6617 12.1872 13.7417 12.3379 13.7833C12.4886 13.825 12.6475 13.8269 12.7992 13.7889L15.7219 13.0585C16.0646 12.9729 16.4222 12.9662 16.7678 13.0391C17.1134 13.1119 17.4379 13.2624 17.7167 13.4791L20.7957 15.8745C21.9026 16.7357 22.0041 18.3713 21.0134 19.3607L19.6328 20.7413C18.6447 21.7294 17.168 22.1633 15.7914 21.6786C12.268 20.4389 9.06895 18.4219 6.43154 15.777C3.78687 13.14 1.76979 9.94142 0.529905 6.41852C0.0465586 5.04325 0.480502 3.56517 1.46856 2.57712L2.84917 1.19651Z" fill="#555C74"/>
</svg>
