<svg width="24" height="14" viewBox="0 0 24 14" fill="none" xmlns="http://www.w3.org/2000/svg">
<g clip-path="url(#clip0_123_122)">
<path d="M6.60316 3.31689L8.68324 1.7583C8.82997 1.64777 9.00438 1.56007 9.19643 1.50024C9.38849 1.44041 9.59442 1.40963 9.80238 1.40967C10.2262 1.40967 10.6246 1.53418 10.9235 1.7583L13.1618 3.43701C13.3091 3.54706 13.4261 3.67786 13.5058 3.82191C13.5856 3.96595 13.6267 4.12039 13.6266 4.27637C13.6266 4.59424 13.4606 4.89307 13.1618 5.11719L11.525 6.34473C11.9082 6.97807 12.4408 7.55423 13.0973 8.04541C13.7521 8.53897 14.5203 8.93992 15.3649 9.229L17.0016 8.00146C17.1483 7.89093 17.3227 7.80323 17.5148 7.7434C17.7069 7.68357 17.9128 7.65279 18.1207 7.65283C18.5446 7.65283 18.943 7.77734 19.2418 8.00146L21.4821 9.67871C21.6296 9.78896 21.7467 9.92001 21.8264 10.0643C21.9062 10.2086 21.9472 10.3633 21.9469 10.5195C21.9469 10.8374 21.7809 11.1362 21.4821 11.3604L19.4059 12.9175C18.9293 13.2764 18.2711 13.48 17.5954 13.48C17.4528 13.48 17.3161 13.4712 17.1813 13.4536C14.5485 13.1284 11.9371 12.0781 9.82973 10.499C7.72426 8.92139 6.32582 6.96436 5.88637 4.98389C5.75355 4.37891 6.02113 3.75635 6.60316 3.31689Z" fill="white"/>
</g>
<defs>
<clipPath id="clip0_123_122">
<rect width="24" height="14" fill="white" transform="matrix(-1 0 0 1 24 0)"/>
</clipPath>
</defs>
</svg>
