<svg width="23" height="23" viewBox="0 0 23 23" fill="none" xmlns="http://www.w3.org/2000/svg">
<path d="M22.9198 1.80637C22.9698 1.68144 22.982 1.54457 22.955 1.41274C22.9279 1.28092 22.8628 1.15992 22.7677 1.06477C22.6725 0.969607 22.5515 0.90447 22.4197 0.877427C22.2879 0.850385 22.151 0.862627 22.0261 0.912636L2.02463 8.91366H2.02325L1.40178 9.16116C1.28407 9.20811 1.18163 9.28669 1.10577 9.38821C1.02991 9.48973 0.983595 9.61024 0.971929 9.73643C0.960263 9.86263 0.983704 9.98959 1.03966 10.1033C1.09562 10.217 1.18192 10.313 1.28903 10.3808L1.85276 10.7383L1.85413 10.741L8.72202 15.1107L13.0916 21.9787L13.0944 21.9815L13.4519 22.5452C13.5198 22.6519 13.6159 22.7378 13.7295 22.7934C13.8431 22.849 13.9699 22.8722 14.0958 22.8604C14.2218 22.8486 14.342 22.8023 14.4433 22.7265C14.5447 22.6508 14.6231 22.5486 14.6701 22.4311L22.9198 1.80637V1.80637ZM20.3995 4.40509L10.0956 14.7092L9.79998 14.2445C9.74582 14.1592 9.67352 14.0869 9.58824 14.0327L9.12351 13.7371L19.4274 3.43298L21.0471 2.78536L20.4009 4.40509H20.3995Z" fill="#EEEEEE"/>
</svg>
